<?xml version="1.0" encoding="UTF-8" standalone="no"?><svg xmlns="http://www.w3.org/2000/svg" xmlns:xlink="http://www.w3.org/1999/xlink" contentStyleType="text/css" height="905px" preserveAspectRatio="none" style="width:431px;height:905px;background:#FFFFFF;" version="1.1" viewBox="0 0 431 905" width="431px" zoomAndPan="magnify"><defs/><g><g id="cluster_##882850"><rect fill="none" height="285" rx="2.5" ry="2.5" style="stroke:#181818;stroke-width:1.0;" width="219" x="171" y="614"/></g><g id="cluster_##882857"><rect fill="none" height="240" rx="2.5" ry="2.5" style="stroke:#181818;stroke-width:1.0;" width="289" x="136" y="7"/></g><g id="cluster_##882863"><rect fill="none" height="319" rx="2.5" ry="2.5" style="stroke:#181818;stroke-width:1.0;" width="257" x="152" y="271"/></g><g id="elem_read"><ellipse cx="280.6963" cy="648.9393" fill="#F1F1F1" rx="80.1963" ry="18.4393" style="stroke:#181818;stroke-width:0.5;"/><text fill="#000000" font-family="sans-serif" font-size="14" lengthAdjust="spacing" textLength="119" x="219.6039" y="652.2979">Читает новости</text></g><g id="elem_comment"><ellipse cx="280.2532" cy="720.9506" fill="#F1F1F1" rx="77.7532" ry="17.9506" style="stroke:#181818;stroke-width:0.5;"/><text fill="#000000" font-family="sans-serif" font-size="14" lengthAdjust="spacing" textLength="113" x="221.1994" y="724.5809">Комментирует</text></g><g id="elem_rate"><ellipse cx="280.4626" cy="790.1925" fill="#F1F1F1" rx="66.4626" ry="15.6925" style="stroke:#181818;stroke-width:0.5;"/><text fill="#000000" font-family="sans-serif" font-size="14" lengthAdjust="spacing" textLength="83" x="235.9626" y="793.9401">Оценивает</text></g><g id="elem_share"><ellipse cx="280.6693" cy="862.1339" fill="#F1F1F1" rx="93.6693" ry="21.1339" style="stroke:#181818;stroke-width:0.5;"/><text fill="#000000" font-family="sans-serif" font-size="14" lengthAdjust="spacing" textLength="150" x="205.6693" y="864.9805">Делится новостями</text></g><g id="elem_write"><ellipse cx="280.5591" cy="41.1118" fill="#F1F1F1" rx="78.5591" ry="18.1118" style="stroke:#181818;stroke-width:0.5;"/><text fill="#000000" font-family="sans-serif" font-size="14" lengthAdjust="spacing" textLength="115" x="220.8328" y="44.6525">Пишет новости</text></g><g id="elem_edit"><ellipse cx="280.4278" cy="116.9856" fill="#F1F1F1" rx="100.4278" ry="22.4856" style="stroke:#181818;stroke-width:0.5;"/><text fill="#000000" font-family="sans-serif" font-size="14" lengthAdjust="spacing" textLength="165" x="197.9278" y="119.8322">Редактирует новости</text></g><g id="elem_offerNews"><ellipse cx="280.3083" cy="203.0617" fill="#F1F1F1" rx="128.3083" ry="28.0617" style="stroke:#181818;stroke-width:0.5;"/><text fill="#000000" font-family="sans-serif" font-size="14" lengthAdjust="spacing" textLength="225" x="167.8083" y="205.9083">Предлагает к опубликованию</text></g><g id="elem_loadNews"><ellipse cx="280.7481" cy="309.8496" fill="#F1F1F1" rx="102.2481" ry="22.8496" style="stroke:#181818;stroke-width:0.5;"/><text fill="#000000" font-family="sans-serif" font-size="14" lengthAdjust="spacing" textLength="169" x="196.2481" y="312.6963">Выкладывает новости</text></g><g id="elem_checkComment"><ellipse cx="280.3717" cy="392.8743" fill="#F1F1F1" rx="112.3717" ry="24.8743" style="stroke:#181818;stroke-width:0.5;"/><text fill="#000000" font-family="sans-serif" font-size="14" lengthAdjust="spacing" textLength="191" x="184.8717" y="395.721">Проверяет комментарии</text></g><g id="elem_deleteNews"><ellipse cx="280.4263" cy="472.7853" fill="#F1F1F1" rx="84.4263" ry="19.2853" style="stroke:#181818;stroke-width:0.5;"/><text fill="#000000" font-family="sans-serif" font-size="14" lengthAdjust="spacing" textLength="129" x="215.805" y="475.6739">Удаляет новости</text></g><g id="elem_deleteComment"><ellipse cx="280.7042" cy="550.9408" fill="#F1F1F1" rx="102.7042" ry="22.9408" style="stroke:#181818;stroke-width:0.5;"/><text fill="#000000" font-family="sans-serif" font-size="14" lengthAdjust="spacing" textLength="170" x="195.7042" y="553.7875">Удаляет комментарии</text></g><!--MD5=[e1c93bc9be729354515e9ba3224548de]
entity reader--><g id="elem_reader"><ellipse cx="49" cy="726.5" fill="#F1F1F1" rx="8" ry="8" style="stroke:#181818;stroke-width:0.5;"/><path d="M49,734.5 L49,761.5 M36,742.5 L62,742.5 M49,761.5 L36,776.5 M49,761.5 L62,776.5 " fill="none" style="stroke:#181818;stroke-width:0.5;"/><text fill="#000000" font-family="sans-serif" font-size="14" lengthAdjust="spacing" textLength="71" x="13.5" y="790.9951">Читатель</text></g><!--MD5=[bc90421e7a9565933b4dfd94ee91138b]
entity moder--><g id="elem_moder"><ellipse cx="49" cy="403.5" fill="#F1F1F1" rx="8" ry="8" style="stroke:#181818;stroke-width:0.5;"/><path d="M49,411.5 L49,438.5 M36,419.5 L62,419.5 M49,438.5 L36,453.5 M49,438.5 L62,453.5 " fill="none" style="stroke:#181818;stroke-width:0.5;"/><text fill="#000000" font-family="sans-serif" font-size="14" lengthAdjust="spacing" textLength="86" x="6" y="467.9951">Модератор</text></g><!--MD5=[8bbd0c0a8f40d4881635ebf60c2a7fc0]
entity writer--><g id="elem_writer"><ellipse cx="49" cy="87.5" fill="#F1F1F1" rx="8" ry="8" style="stroke:#181818;stroke-width:0.5;"/><path d="M49,95.5 L49,122.5 M36,103.5 L62,103.5 M49,122.5 L36,137.5 M49,122.5 L62,137.5 " fill="none" style="stroke:#181818;stroke-width:0.5;"/><text fill="#000000" font-family="sans-serif" font-size="14" lengthAdjust="spacing" textLength="71" x="13.5" y="151.9951">Писатель</text></g><!--MD5=[6d99552990bd248d2eb8a6d6fd69ed2d]
link reader to read--><g id="link_reader_read"><path d="M84.8258,718.065 C97.4108,706.28 112.39,694.236 128,686 C153.503,672.545 184.007,663.881 210.937,658.351 " fill="none" id="reader-read" style="stroke:#181818;stroke-width:1.0;"/></g><!--MD5=[84a909cda15347a69f9c382b564799cb]
link reader to comment--><g id="link_reader_comment"><path d="M84.8561,750.684 C119.214,745.444 172.543,737.312 214.698,730.883 " fill="none" id="reader-comment" style="stroke:#181818;stroke-width:1.0;"/></g><!--MD5=[1f30a01a7faca3376f2036bda7dd2cf7]
link reader to rate--><g id="link_reader_rate"><path d="M84.8561,761.164 C121.722,766.625 180.429,775.323 223.738,781.739 " fill="none" id="reader-rate" style="stroke:#181818;stroke-width:1.0;"/></g><!--MD5=[88b44a7f3171d9ad4e15874c008565d8]
link reader to share--><g id="link_reader_share"><path d="M84.7346,791.815 C97.4231,803.194 112.489,814.909 128,823 C151.478,835.2474 179.048,843.8228 204.188,849.7468 " fill="none" id="reader-share" style="stroke:#181818;stroke-width:1.0;"/></g><!--MD5=[ea5dfe0accf4478c6eb13b1fe91a67fb]
link moder to loadNews--><g id="link_moder_loadNews"><path d="M77.8547,394.944 C91.3566,378.948 108.804,361.436 128,350 C148.683,337.678 173.171,329.095 196.362,323.139 " fill="none" id="moder-loadNews" style="stroke:#181818;stroke-width:1.0;"/></g><!--MD5=[4b3493b6d78f243eb7463be2660b0df3]
link moder to checkComment--><g id="link_moder_checkComment"><path d="M92.0938,425.663 C119.916,420.814 157.418,414.278 191.564,408.327 " fill="none" id="moder-checkComment" style="stroke:#181818;stroke-width:1.0;"/></g><!--MD5=[cbeaafcf16e3b0750c18588e3bddd160]
link moder to deleteNews--><g id="link_moder_deleteNews"><path d="M92.0938,440.337 C125.739,446.201 173.54,454.532 212.444,461.313 " fill="none" id="moder-deleteNews" style="stroke:#181818;stroke-width:1.0;"/></g><!--MD5=[063c7da8ba97f83323110b61f4a47c9f]
link moder to deleteComment--><g id="link_moder_deleteComment"><path d="M81.318,471.374 C94.4427,485.302 110.677,500.044 128,510 C149.38,522.288 174.577,531.011 198.221,537.155 " fill="none" id="moder-deleteComment" style="stroke:#181818;stroke-width:1.0;"/></g><!--MD5=[3717a04df060f6ce1a8f13e7a8b1a817]
link writer to write--><g id="link_writer_write"><path d="M84.5225,97.031 C97.7958,89.963 113.295,82.428 128,77 C156.913,66.329 190.118,58.023 218.059,52.091 " fill="none" id="writer-write" style="stroke:#181818;stroke-width:1.0;"/></g><!--MD5=[b89cbfc4b1d5ca35c8fbf39c5504f567]
link writer to edit--><g id="link_writer_edit"><path d="M84.8561,117 C110.248,117 146.003,117 179.95,117 " fill="none" id="writer-edit" style="stroke:#181818;stroke-width:1.0;"/></g><!--MD5=[de335a73c602ea4eb6639c9a1a62151a]
link writer to offerNews--><g id="link_writer_offerNews"><path d="M84.7087,136.487 C98.0035,143.5 113.468,151.123 128,157 C150.425,166.069 175.334,174.339 198.371,181.287 " fill="none" id="writer-offerNews" style="stroke:#181818;stroke-width:1.0;"/></g><!--MD5=[690e17c26eaf2ca763043f28bb687483]
@startuml
left to right direction
actor "Читатель" as reader
rectangle {
usecase "Читает новости" as read
usecase "Комментирует" as comment
usecase "Оценивает" as rate
usecase "Делится новостями" as share
}

left to right direction
actor "Модератор" as moder
rectangle {
usecase "Пишет новости" as write
usecase "Редактирует новости" as edit
usecase "Предлагает к опубликованию" as offerNews
}

left to right direction
actor "Писатель" as writer
rectangle {
usecase "Выкладывает новости" as loadNews
usecase "Проверяет комментарии" as checkComment
usecase "Удаляет новости" as deleteNews
usecase "Удаляет комментарии" as deleteComment
}

reader - - read
reader - - comment
reader - - rate
reader - - share

moder - - loadNews
moder - - checkComment
moder - - deleteNews
moder - - deleteComment

writer - - write
writer - - edit
writer - - offerNews
@enduml

PlantUML version 1.2022.8beta2(Unknown compile time)
(GPL source distribution)
Java Runtime: Java(TM) SE Runtime Environment
JVM: Java HotSpot(TM) 64-Bit Server VM
Default Encoding: UTF-8
Language: en
Country: US
--></g></svg>